<mxfile host="app.diagrams.net" modified="2023-06-29T13:24:38.733Z" agent="Mozilla/5.0 (Windows NT 10.0; Win64; x64; rv:109.0) Gecko/20100101 Firefox/114.0" etag="0YSGbOzd4YZliqONWqe0" version="21.5.2" type="github">
  <diagram name="PÃ¡gina-1" id="cAdZGd3ZQvYycISEB2nt">
    <mxGraphModel dx="926" dy="465" grid="1" gridSize="10" guides="1" tooltips="1" connect="1" arrows="1" fold="1" page="1" pageScale="1" pageWidth="1169" pageHeight="1654" math="0" shadow="0">
      <root>
        <mxCell id="0" />
        <mxCell id="1" parent="0" />
        <mxCell id="6qhqp_pLTHLFrG7n4mDh-1" value="Produto" style="swimlane;fontStyle=1;align=center;verticalAlign=top;childLayout=stackLayout;horizontal=1;startSize=26;horizontalStack=0;resizeParent=1;resizeParentMax=0;resizeLast=0;collapsible=1;marginBottom=0;whiteSpace=wrap;html=1;" vertex="1" parent="1">
          <mxGeometry x="80" y="80" width="270" height="250" as="geometry" />
        </mxCell>
        <mxCell id="6qhqp_pLTHLFrG7n4mDh-2" value="&lt;div&gt;- idProduto: long&lt;br&gt;&lt;/div&gt;&lt;div&gt;- nomeProduto: String&lt;/div&gt;&lt;div&gt;- preco: float&lt;/div&gt;&lt;div&gt;- estoque: int&lt;br&gt;&lt;/div&gt;" style="text;strokeColor=none;fillColor=none;align=left;verticalAlign=top;spacingLeft=4;spacingRight=4;overflow=hidden;rotatable=0;points=[[0,0.5],[1,0.5]];portConstraint=eastwest;whiteSpace=wrap;html=1;" vertex="1" parent="6qhqp_pLTHLFrG7n4mDh-1">
          <mxGeometry y="26" width="270" height="74" as="geometry" />
        </mxCell>
        <mxCell id="6qhqp_pLTHLFrG7n4mDh-3" value="" style="line;strokeWidth=1;fillColor=none;align=left;verticalAlign=middle;spacingTop=-1;spacingLeft=3;spacingRight=3;rotatable=0;labelPosition=right;points=[];portConstraint=eastwest;strokeColor=inherit;" vertex="1" parent="6qhqp_pLTHLFrG7n4mDh-1">
          <mxGeometry y="100" width="270" height="8" as="geometry" />
        </mxCell>
        <mxCell id="6qhqp_pLTHLFrG7n4mDh-4" value="&lt;div&gt;+ getIdProduto(): long&lt;/div&gt;&lt;div&gt;+ setIdProduto(idProduto: long): void&lt;/div&gt;&lt;div&gt;+ getNomeProduto(): String&lt;/div&gt;&lt;div&gt;+ setNomeProduto(nomeProduto: String): void&lt;/div&gt;&lt;div&gt;+ getPreco(): float&lt;/div&gt;&lt;div&gt;+ setPreco(preco: float): void&lt;/div&gt;&lt;div&gt;+ getEstoque(): int&lt;/div&gt;&lt;div&gt;+ setEstoque(estoque: int): void&lt;/div&gt;&lt;div&gt;+ toString(): String&lt;br&gt;&lt;/div&gt;" style="text;strokeColor=none;fillColor=none;align=left;verticalAlign=top;spacingLeft=4;spacingRight=4;overflow=hidden;rotatable=0;points=[[0,0.5],[1,0.5]];portConstraint=eastwest;whiteSpace=wrap;html=1;" vertex="1" parent="6qhqp_pLTHLFrG7n4mDh-1">
          <mxGeometry y="108" width="270" height="142" as="geometry" />
        </mxCell>
        <mxCell id="6qhqp_pLTHLFrG7n4mDh-5" value="Cliente" style="swimlane;fontStyle=1;align=center;verticalAlign=top;childLayout=stackLayout;horizontal=1;startSize=26;horizontalStack=0;resizeParent=1;resizeParentMax=0;resizeLast=0;collapsible=1;marginBottom=0;whiteSpace=wrap;html=1;" vertex="1" parent="1">
          <mxGeometry x="495" y="400" width="260" height="340" as="geometry">
            <mxRectangle x="495" y="400" width="80" height="30" as="alternateBounds" />
          </mxGeometry>
        </mxCell>
        <mxCell id="6qhqp_pLTHLFrG7n4mDh-6" value="&lt;div&gt;- idCliente: long&lt;/div&gt;&lt;div&gt;- nomeCliente: String&lt;/div&gt;&lt;div&gt;- nasc: Date&lt;/div&gt;&lt;div&gt;- cpf String&lt;/div&gt;&lt;div&gt;- telefone: String&lt;/div&gt;&lt;div&gt;- email: String&lt;br&gt;&lt;/div&gt;" style="text;strokeColor=none;fillColor=none;align=left;verticalAlign=top;spacingLeft=4;spacingRight=4;overflow=hidden;rotatable=0;points=[[0,0.5],[1,0.5]];portConstraint=eastwest;whiteSpace=wrap;html=1;" vertex="1" parent="6qhqp_pLTHLFrG7n4mDh-5">
          <mxGeometry y="26" width="260" height="104" as="geometry" />
        </mxCell>
        <mxCell id="6qhqp_pLTHLFrG7n4mDh-7" value="" style="line;strokeWidth=1;fillColor=none;align=left;verticalAlign=middle;spacingTop=-1;spacingLeft=3;spacingRight=3;rotatable=0;labelPosition=right;points=[];portConstraint=eastwest;strokeColor=inherit;" vertex="1" parent="6qhqp_pLTHLFrG7n4mDh-5">
          <mxGeometry y="130" width="260" height="8" as="geometry" />
        </mxCell>
        <mxCell id="6qhqp_pLTHLFrG7n4mDh-8" value="+ getIdCliente(): long&lt;div&gt;+ setIdCliente(idCliente: long): void&lt;/div&gt;&lt;div&gt;+ getNomeCliente(): String&lt;/div&gt;&lt;div&gt;+ setNomeCliente(nomeCliente: String): void&lt;/div&gt;&lt;div&gt;+ getNasc(): Date&lt;/div&gt;&lt;div&gt;+ setNasc(nasc: Date): void&lt;br&gt;&lt;/div&gt;&lt;div&gt;+ getCpf(): String&lt;/div&gt;&lt;div&gt;+ setCpf(cpf: String): void&lt;/div&gt;&lt;div&gt;+ getTelefone(): String&lt;/div&gt;&lt;div&gt;+ setTelefone(telefone: String): void&lt;/div&gt;&lt;div&gt;+ getEmail(): String&lt;/div&gt;&lt;div&gt;+ setEmail(email: String): void&lt;/div&gt;&lt;div&gt;+ toString(): String&lt;br&gt;&lt;/div&gt;" style="text;strokeColor=none;fillColor=none;align=left;verticalAlign=top;spacingLeft=4;spacingRight=4;overflow=hidden;rotatable=0;points=[[0,0.5],[1,0.5]];portConstraint=eastwest;whiteSpace=wrap;html=1;" vertex="1" parent="6qhqp_pLTHLFrG7n4mDh-5">
          <mxGeometry y="138" width="260" height="202" as="geometry" />
        </mxCell>
        <mxCell id="6qhqp_pLTHLFrG7n4mDh-25" style="edgeStyle=orthogonalEdgeStyle;rounded=0;orthogonalLoop=1;jettySize=auto;html=1;exitX=0.5;exitY=1;exitDx=0;exitDy=0;entryX=0.5;entryY=0;entryDx=0;entryDy=0;endArrow=diamondThin;endFill=1;endSize=14;" edge="1" parent="1" source="6qhqp_pLTHLFrG7n4mDh-9" target="6qhqp_pLTHLFrG7n4mDh-13">
          <mxGeometry relative="1" as="geometry">
            <Array as="points">
              <mxPoint x="625" y="360" />
              <mxPoint x="215" y="360" />
            </Array>
          </mxGeometry>
        </mxCell>
        <mxCell id="6qhqp_pLTHLFrG7n4mDh-9" value="ItensVenda" style="swimlane;fontStyle=1;align=center;verticalAlign=top;childLayout=stackLayout;horizontal=1;startSize=26;horizontalStack=0;resizeParent=1;resizeParentMax=0;resizeLast=0;collapsible=1;marginBottom=0;whiteSpace=wrap;html=1;" vertex="1" parent="1">
          <mxGeometry x="500" y="80" width="250" height="250" as="geometry" />
        </mxCell>
        <mxCell id="6qhqp_pLTHLFrG7n4mDh-10" value="&lt;div&gt;- idItensVenda: long&lt;/div&gt;&lt;div&gt;- produto: Produto&lt;/div&gt;&lt;div&gt;- quant: int&lt;/div&gt;&lt;div&gt;- subTotal: float&lt;br&gt;&lt;/div&gt;" style="text;strokeColor=none;fillColor=none;align=left;verticalAlign=top;spacingLeft=4;spacingRight=4;overflow=hidden;rotatable=0;points=[[0,0.5],[1,0.5]];portConstraint=eastwest;whiteSpace=wrap;html=1;" vertex="1" parent="6qhqp_pLTHLFrG7n4mDh-9">
          <mxGeometry y="26" width="250" height="74" as="geometry" />
        </mxCell>
        <mxCell id="6qhqp_pLTHLFrG7n4mDh-11" value="" style="line;strokeWidth=1;fillColor=none;align=left;verticalAlign=middle;spacingTop=-1;spacingLeft=3;spacingRight=3;rotatable=0;labelPosition=right;points=[];portConstraint=eastwest;strokeColor=inherit;" vertex="1" parent="6qhqp_pLTHLFrG7n4mDh-9">
          <mxGeometry y="100" width="250" height="8" as="geometry" />
        </mxCell>
        <mxCell id="6qhqp_pLTHLFrG7n4mDh-12" value="&lt;div&gt;+ getIdItensVenda(): long&lt;/div&gt;&lt;div&gt;+ setIdItensVenda(idItensVenda: long): void&lt;br&gt;&lt;/div&gt;&lt;div&gt;+ getProduto(): Produto&lt;/div&gt;&lt;div&gt;+ setProduto(produto: Produto): void&lt;/div&gt;&lt;div&gt;+ getQuant(): int&lt;/div&gt;&lt;div&gt;+ setQuant(quant: int): void&lt;/div&gt;&lt;div&gt;+ getSubTotal(): float&lt;/div&gt;&lt;div&gt;+ setSubTotal(subTotal: float): void&lt;/div&gt;&lt;div&gt;+ toString(): String&lt;br&gt;&lt;/div&gt;" style="text;strokeColor=none;fillColor=none;align=left;verticalAlign=top;spacingLeft=4;spacingRight=4;overflow=hidden;rotatable=0;points=[[0,0.5],[1,0.5]];portConstraint=eastwest;whiteSpace=wrap;html=1;" vertex="1" parent="6qhqp_pLTHLFrG7n4mDh-9">
          <mxGeometry y="108" width="250" height="142" as="geometry" />
        </mxCell>
        <mxCell id="6qhqp_pLTHLFrG7n4mDh-13" value="Venda" style="swimlane;fontStyle=1;align=center;verticalAlign=top;childLayout=stackLayout;horizontal=1;startSize=26;horizontalStack=0;resizeParent=1;resizeParentMax=0;resizeLast=0;collapsible=1;marginBottom=0;whiteSpace=wrap;html=1;" vertex="1" parent="1">
          <mxGeometry x="95" y="420" width="240" height="300" as="geometry" />
        </mxCell>
        <mxCell id="6qhqp_pLTHLFrG7n4mDh-14" value="&lt;div&gt;- idVenda: long&lt;/div&gt;&lt;div&gt;- dataVenda: Date&lt;/div&gt;&lt;div&gt;- itens: List&amp;lt;ItensVenda&amp;gt;&lt;/div&gt;&lt;div&gt;- valorTotal: float&lt;/div&gt;&lt;div&gt;- cliente: Cliente&lt;br&gt;&lt;/div&gt;" style="text;strokeColor=none;fillColor=none;align=left;verticalAlign=top;spacingLeft=4;spacingRight=4;overflow=hidden;rotatable=0;points=[[0,0.5],[1,0.5]];portConstraint=eastwest;whiteSpace=wrap;html=1;" vertex="1" parent="6qhqp_pLTHLFrG7n4mDh-13">
          <mxGeometry y="26" width="240" height="94" as="geometry" />
        </mxCell>
        <mxCell id="6qhqp_pLTHLFrG7n4mDh-15" value="" style="line;strokeWidth=1;fillColor=none;align=left;verticalAlign=middle;spacingTop=-1;spacingLeft=3;spacingRight=3;rotatable=0;labelPosition=right;points=[];portConstraint=eastwest;strokeColor=inherit;" vertex="1" parent="6qhqp_pLTHLFrG7n4mDh-13">
          <mxGeometry y="120" width="240" height="8" as="geometry" />
        </mxCell>
        <mxCell id="6qhqp_pLTHLFrG7n4mDh-16" value="&lt;div&gt;+ getIdVenda(): long&lt;/div&gt;&lt;div&gt;+ setIdVenda(idVenda: long): void&lt;/div&gt;&lt;div&gt;+ getDataVenda(): Date&lt;/div&gt;&lt;div&gt;+ setDataVenda(dataVenda: Date): void&lt;/div&gt;&lt;div&gt;+ getItens(): List&amp;lt;ItensVenda&amp;gt;&lt;/div&gt;&lt;div&gt;+ setItens(itens: List&amp;lt;ItensVenda&amp;gt;): void&lt;/div&gt;&lt;div&gt;+ getValorTotal(): float&lt;/div&gt;&lt;div&gt;+ setValorTotal(valorTotal: float): void&lt;/div&gt;&lt;div&gt;+ getCliente(): Cliente&lt;/div&gt;&lt;div&gt;+ setCliente(cliente: Cliente): void&lt;br&gt;&lt;/div&gt;&lt;div&gt;+ toString(): String&lt;br&gt;&lt;/div&gt;" style="text;strokeColor=none;fillColor=none;align=left;verticalAlign=top;spacingLeft=4;spacingRight=4;overflow=hidden;rotatable=0;points=[[0,0.5],[1,0.5]];portConstraint=eastwest;whiteSpace=wrap;html=1;" vertex="1" parent="6qhqp_pLTHLFrG7n4mDh-13">
          <mxGeometry y="128" width="240" height="172" as="geometry" />
        </mxCell>
        <mxCell id="6qhqp_pLTHLFrG7n4mDh-19" style="edgeStyle=orthogonalEdgeStyle;rounded=0;orthogonalLoop=1;jettySize=auto;html=1;entryX=0.001;entryY=-0.023;entryDx=0;entryDy=0;entryPerimeter=0;endArrow=diamondThin;endFill=1;endSize=14;" edge="1" parent="1">
          <mxGeometry relative="1" as="geometry">
            <mxPoint x="350" y="204.38" as="sourcePoint" />
            <mxPoint x="500.25" y="205.11400000000003" as="targetPoint" />
          </mxGeometry>
        </mxCell>
        <mxCell id="6qhqp_pLTHLFrG7n4mDh-21" style="edgeStyle=orthogonalEdgeStyle;rounded=0;orthogonalLoop=1;jettySize=auto;html=1;exitX=0;exitY=0.5;exitDx=0;exitDy=0;entryX=1.002;entryY=0.529;entryDx=0;entryDy=0;entryPerimeter=0;endArrow=diamondThin;endFill=1;endSize=14;" edge="1" parent="1">
          <mxGeometry relative="1" as="geometry">
            <mxPoint x="494.52" y="569.39" as="sourcePoint" />
            <mxPoint x="335" y="569.378" as="targetPoint" />
          </mxGeometry>
        </mxCell>
        <mxCell id="6qhqp_pLTHLFrG7n4mDh-22" value="1" style="text;html=1;align=center;verticalAlign=middle;resizable=0;points=[];autosize=1;strokeColor=none;fillColor=none;" vertex="1" parent="1">
          <mxGeometry x="345" y="178" width="30" height="30" as="geometry" />
        </mxCell>
        <mxCell id="6qhqp_pLTHLFrG7n4mDh-23" value="1..*" style="text;html=1;align=center;verticalAlign=middle;resizable=0;points=[];autosize=1;strokeColor=none;fillColor=none;" vertex="1" parent="1">
          <mxGeometry x="623" y="333" width="40" height="30" as="geometry" />
        </mxCell>
        <mxCell id="6qhqp_pLTHLFrG7n4mDh-24" value="1" style="text;html=1;align=center;verticalAlign=middle;resizable=0;points=[];autosize=1;strokeColor=none;fillColor=none;" vertex="1" parent="1">
          <mxGeometry x="465" y="570" width="30" height="30" as="geometry" />
        </mxCell>
      </root>
    </mxGraphModel>
  </diagram>
</mxfile>
